<?xml version="1.0" encoding="utf-8"?>
<!-- Generator: Adobe Illustrator 19.0.0, SVG Export Plug-In . SVG Version: 6.00 Build 0)  -->
<svg version="1.1" id="Layer_1" xmlns="http://www.w3.org/2000/svg" xmlns:xlink="http://www.w3.org/1999/xlink" x="0px" y="0px"
	 viewBox="0 0 612 396" style="enable-background:new 0 0 612 396;" xml:space="preserve">
<style type="text/css">
	.st0{fill:none;stroke:#000000;stroke-width:4;stroke-miterlimit:10;}
	.st1{fill:none;stroke:#000000;stroke-width:4;stroke-linejoin:round;stroke-miterlimit:10;}
</style>
<g>
	<g>
		<polyline class="st0" points="185.1,174.8 160.3,174.8 160.3,221.2 185.1,221.2 		"/>
		<path class="st1" d="M186.5,198h12.1c6.4,0,11.6-5.2,11.6-11.6l0,0c0-6.4-5.2-11.6-11.6-11.6h-38.3L186.5,198h12.1
			c6.4,0,11.6,5.2,11.6,11.6l0,0c0,6.4-5.2,11.6-11.6,11.6h-38.3L186.5,198z"/>
	</g>
	<g>
		<path d="M251.5,191.1c0,3.8-2.3,5.8-4.6,6.8c3.4,1,6.2,3,6.2,7c0,5-4.2,8-10.5,8h-12.9v-29h12.3
			C247.8,183.8,251.5,186.7,251.5,191.1z M248.2,191.5c0-2.9-2.3-4.8-6.4-4.8h-8.8v10h8.6C245.5,196.8,248.2,195,248.2,191.5z
			 M249.8,204.7c0-3.2-2.7-5-7.7-5h-9.2v10.2h9.7C247.1,209.9,249.8,208,249.8,204.7z"/>
		<path d="M274.3,191.4h3.1v21.4h-3.1v-3.7c-1.5,2.3-3.6,4.2-7.3,4.2c-5.2,0-8.2-3.5-8.2-8.6v-13.3h3.2v12.5c0,4,2.2,6.5,5.9,6.5
			c3.6,0,6.4-2.7,6.4-6.7V191.4z"/>
		<path d="M295.1,213.6c-1.8,4.4-3.9,6.1-7.1,6.1c-1.8,0-3.1-0.4-4.6-1.1l1.1-2.5c1,0.5,2,0.8,3.4,0.8c1.9,0,3.1-1,4.4-4l-9.7-21.3
			h3.5l7.8,17.9l6.9-17.9h3.4L295.1,213.6z"/>
		<path d="M331.5,191.1c0,3.8-2.3,5.8-4.6,6.8c3.4,1,6.2,3,6.2,7c0,5-4.2,8-10.5,8h-12.9v-29H322
			C327.7,183.8,331.5,186.7,331.5,191.1z M328.1,191.5c0-2.9-2.3-4.8-6.4-4.8h-8.8v10h8.6C325.4,196.8,328.1,195,328.1,191.5z
			 M329.8,204.7c0-3.2-2.7-5-7.7-5h-9.2v10.2h9.7C327,209.9,329.8,208,329.8,204.7z"/>
		<path d="M339.1,186.7v-3.5h3.6v3.5H339.1z M339.3,212.8v-21.4h3.2v21.4H339.3z"/>
		<path d="M354.3,206.8c0,2.6,1.5,3.6,3.6,3.6c1.1,0,2-0.2,3.1-0.7v2.7c-1.1,0.6-2.3,0.9-3.9,0.9c-3.4,0-6.1-1.7-6.1-6.1v-12.9h-3
			v-2.8h3V185h3.2v6.5h6.8v2.8h-6.8V206.8z"/>
		<path d="M375.7,213.3c-6.3,0-11-5.1-11-11.1c0-6.1,4.7-11.2,11-11.2c4.1,0,6.6,1.7,8.6,3.8l-2.1,2.2c-1.7-1.8-3.6-3.2-6.5-3.2
			c-4.4,0-7.7,3.7-7.7,8.3c0,4.7,3.4,8.4,7.9,8.4c2.7,0,4.8-1.4,6.5-3.2l2,1.9C382.3,211.6,379.7,213.3,375.7,213.3z"/>
		<path d="M398.9,213.3c-6.4,0-11.1-5.1-11.1-11.1c0-6.1,4.7-11.2,11.2-11.2c6.4,0,11.1,5.1,11.1,11.1
			C410.1,208.2,405.3,213.3,398.9,213.3z M398.9,193.8c-4.6,0-7.8,3.7-7.8,8.3s3.4,8.4,7.9,8.4c4.6,0,7.9-3.7,7.9-8.3
			C406.8,197.5,403.4,193.8,398.9,193.8z"/>
		<path d="M416,186.7v-3.5h3.6v3.5H416z M416.2,212.8v-21.4h3.2v21.4H416.2z"/>
		<path d="M430,212.8h-3.2v-21.4h3.2v3.7c1.4-2.3,3.6-4.2,7.3-4.2c5.2,0,8.2,3.5,8.2,8.6v13.3h-3.2v-12.5c0-4-2.2-6.5-5.9-6.5
			c-3.7,0-6.4,2.7-6.4,6.7V212.8z"/>
	</g>
</g>
</svg>
